<svg width="282" height="360" viewBox="0 0 282 360" fill="none" xmlns="http://www.w3.org/2000/svg">
<rect x="71" y="18.1818" width="143.182" height="181.818" rx="10" fill="url(#paint0_radial_3_4)" stroke="#052A75" stroke-width="3"/>
<rect x="96" y="50" width="93.1818" height="125" rx="10" fill="url(#paint1_radial_3_4)" stroke="#052A75" stroke-width="3"/>
<path d="M121 109.091L164.182 109.091" stroke="#052A75" stroke-width="3" stroke-linecap="round"/>
<path d="M121 84.0909L164.182 84.0909" stroke="#052A75" stroke-width="3" stroke-linecap="round"/>
<line x1="120.227" y1="137.136" x2="144.5" y2="137.136" stroke="#052A75" stroke-width="3" stroke-linecap="round"/>
<mask id="path-6-inside-1_3_4" fill="white">
<path fill-rule="evenodd" clip-rule="evenodd" d="M164.07 20.4545C162.929 8.96972 153.239 0 141.455 0C129.67 0 119.98 8.96972 118.84 20.4545H118.727L118.727 27.2727V34.0909H164.182L164.182 27.2727V20.4545H164.07Z"/>
</mask>
<path fill-rule="evenodd" clip-rule="evenodd" d="M164.07 20.4545C162.929 8.96972 153.239 0 141.455 0C129.67 0 119.98 8.96972 118.84 20.4545H118.727L118.727 27.2727V34.0909H164.182L164.182 27.2727V20.4545H164.07Z" fill="#D46B5C"/>
<path d="M164.07 20.4545L161.084 20.7509L161.353 23.4545H164.07V20.4545ZM118.84 20.4545V23.4545H121.556L121.825 20.7509L118.84 20.4545ZM118.727 20.4545V17.4545H115.727L115.727 20.4545L118.727 20.4545ZM118.727 27.2727L115.727 27.2727V27.2727H118.727ZM118.727 34.0909H115.727V37.0909H118.727V34.0909ZM164.182 34.0909V37.0909H167.182L167.182 34.0909L164.182 34.0909ZM164.182 27.2727L167.182 27.2727V27.2727H164.182ZM164.182 20.4545H167.182V17.4545H164.182V20.4545ZM141.455 3C151.682 3 160.095 10.7853 161.084 20.7509L167.055 20.1581C165.764 7.15412 154.797 -3 141.455 -3V3ZM121.825 20.7509C122.814 10.7853 131.227 3 141.455 3V-3C128.112 -3 117.145 7.15412 115.854 20.1581L121.825 20.7509ZM118.727 23.4545H118.84V17.4545H118.727V23.4545ZM121.727 27.2727L121.727 20.4545L115.727 20.4545L115.727 27.2727L121.727 27.2727ZM121.727 34.0909V27.2727H115.727V34.0909H121.727ZM164.182 31.0909H118.727V37.0909H164.182V31.0909ZM161.182 27.2727L161.182 34.0909L167.182 34.0909L167.182 27.2727L161.182 27.2727ZM161.182 20.4545V27.2727H167.182V20.4545H161.182ZM164.07 23.4545H164.182V17.4545H164.07V23.4545Z" fill="#052A75" mask="url(#path-6-inside-1_3_4)"/>
<path d="M89.5825 250.7C89.5825 256.7 88.5325 261.725 86.4325 265.775C84.3325 269.825 81.3075 272.875 77.3575 274.925C73.4575 276.975 68.7325 278 63.1825 278H49.1575V224.45H64.6825C69.7825 224.45 74.1825 225.45 77.8825 227.45C81.6325 229.45 84.5075 232.4 86.5075 236.3C88.5575 240.15 89.5825 244.95 89.5825 250.7ZM82.5325 250.925C82.5325 246.175 81.8075 242.275 80.3575 239.225C78.9075 236.175 76.7825 233.925 73.9825 232.475C71.2325 230.975 67.8575 230.225 63.8575 230.225H55.8325V272.225H62.5075C69.2075 272.225 74.2075 270.45 77.5075 266.9C80.8575 263.3 82.5325 257.975 82.5325 250.925ZM122.847 237.125C127.447 237.125 130.872 238.2 133.122 240.35C135.422 242.5 136.572 245.925 136.572 250.625V278H131.847L130.572 272.3H130.272C129.172 273.75 128.047 274.975 126.897 275.975C125.797 276.925 124.497 277.625 122.997 278.075C121.547 278.525 119.747 278.75 117.597 278.75C115.347 278.75 113.322 278.325 111.522 277.475C109.722 276.625 108.297 275.325 107.247 273.575C106.197 271.775 105.672 269.525 105.672 266.825C105.672 262.825 107.147 259.75 110.097 257.6C113.047 255.4 117.597 254.2 123.747 254L130.122 253.775V251.375C130.122 248.025 129.447 245.7 128.097 244.4C126.797 243.1 124.922 242.45 122.472 242.45C120.522 242.45 118.647 242.775 116.847 243.425C115.097 244.025 113.422 244.725 111.822 245.525L109.797 240.575C111.497 239.625 113.472 238.825 115.722 238.175C117.972 237.475 120.347 237.125 122.847 237.125ZM124.647 258.575C120.047 258.775 116.847 259.575 115.047 260.975C113.297 262.375 112.422 264.35 112.422 266.9C112.422 269.15 113.047 270.8 114.297 271.85C115.547 272.9 117.172 273.425 119.172 273.425C122.272 273.425 124.872 272.5 126.972 270.65C129.072 268.75 130.122 265.85 130.122 261.95V258.35L124.647 258.575ZM175.291 237.05C179.791 237.05 183.191 238.225 185.491 240.575C187.841 242.875 189.016 246.625 189.016 251.825V278H182.491V252.275C182.491 249.025 181.816 246.6 180.466 245C179.116 243.4 177.041 242.6 174.241 242.6C170.141 242.6 167.291 243.85 165.691 246.35C164.141 248.85 163.366 252.45 163.366 257.15V278H156.841V237.8H162.091L163.066 243.275H163.441C164.241 241.875 165.266 240.725 166.516 239.825C167.766 238.875 169.141 238.175 170.641 237.725C172.141 237.275 173.691 237.05 175.291 237.05ZM203.414 237.8H210.464L218.489 260.675C218.989 262.025 219.439 263.325 219.839 264.575C220.239 265.825 220.589 267.05 220.889 268.25C221.189 269.4 221.414 270.525 221.564 271.625H221.789C222.089 270.375 222.514 268.75 223.064 266.75C223.664 264.7 224.289 262.65 224.939 260.6L232.514 237.8H239.639L223.364 283.55C222.464 286.05 221.389 288.225 220.139 290.075C218.939 291.975 217.464 293.425 215.714 294.425C213.964 295.475 211.864 296 209.414 296C208.314 296 207.314 295.925 206.414 295.775C205.564 295.675 204.839 295.55 204.239 295.4V290.15C204.739 290.25 205.364 290.35 206.114 290.45C206.864 290.55 207.639 290.6 208.439 290.6C209.889 290.6 211.139 290.3 212.189 289.7C213.239 289.15 214.139 288.325 214.889 287.225C215.639 286.175 216.264 284.925 216.764 283.475L218.639 278.15L203.414 237.8ZM72.6688 359H64.7938L38.2438 314.525H37.9438C37.9938 315.425 38.0438 316.425 38.0938 317.525C38.1938 318.625 38.2688 319.825 38.3188 321.125C38.3688 322.375 38.4188 323.675 38.4688 325.025C38.5188 326.375 38.5438 327.725 38.5438 329.075V359H32.3938V305.45H40.1938L66.6689 349.775H66.9689C66.9188 349.175 66.8688 348.35 66.8188 347.3C66.7688 346.2 66.7188 345 66.6689 343.7C66.6189 342.35 66.5689 340.975 66.5188 339.575C66.4688 338.175 66.4438 336.875 66.4438 335.675V305.45H72.6688V359ZM127.1 338.825C127.1 342.175 126.675 345.15 125.825 347.75C125.025 350.3 123.85 352.475 122.3 354.275C120.75 356.075 118.875 357.45 116.675 358.4C114.475 359.3 112.025 359.75 109.325 359.75C106.825 359.75 104.5 359.3 102.35 358.4C100.25 357.45 98.4001 356.075 96.8001 354.275C95.2501 352.475 94.0501 350.3 93.2001 347.75C92.3501 345.15 91.9251 342.175 91.9251 338.825C91.9251 334.375 92.6251 330.625 94.0251 327.575C95.4751 324.475 97.5251 322.125 100.175 320.525C102.825 318.875 105.95 318.05 109.55 318.05C113 318.05 116.025 318.875 118.625 320.525C121.275 322.125 123.35 324.475 124.85 327.575C126.35 330.625 127.1 334.375 127.1 338.825ZM98.6751 338.825C98.6751 341.975 99.0501 344.725 99.8001 347.075C100.55 349.375 101.725 351.15 103.325 352.4C104.925 353.65 106.975 354.275 109.475 354.275C111.975 354.275 114.025 353.65 115.625 352.4C117.225 351.15 118.4 349.375 119.15 347.075C119.95 344.725 120.35 341.975 120.35 338.825C120.35 335.625 119.95 332.9 119.15 330.65C118.4 328.4 117.225 326.675 115.625 325.475C114.025 324.225 111.95 323.6 109.4 323.6C105.65 323.6 102.925 324.95 101.225 327.65C99.5251 330.35 98.6751 334.075 98.6751 338.825ZM158.399 354.35C159.349 354.35 160.324 354.275 161.324 354.125C162.324 353.925 163.149 353.725 163.799 353.525V358.55C163.099 358.9 162.099 359.175 160.799 359.375C159.549 359.625 158.349 359.75 157.199 359.75C155.199 359.75 153.349 359.4 151.649 358.7C149.949 357.95 148.574 356.675 147.524 354.875C146.524 353.075 146.024 350.55 146.024 347.3V323.9H140.699V320.75L146.174 318.125L148.649 309.575H152.549V318.8H163.499V323.9H152.549V347.15C152.549 349.6 153.099 351.425 154.199 352.625C155.299 353.775 156.699 354.35 158.399 354.35ZM194.603 318.05C197.853 318.05 200.653 318.8 203.003 320.3C205.353 321.8 207.153 323.925 208.403 326.675C209.703 329.375 210.353 332.55 210.353 336.2V340.175H184.553C184.653 344.725 185.728 348.2 187.778 350.6C189.828 352.95 192.703 354.125 196.403 354.125C198.803 354.125 200.928 353.9 202.778 353.45C204.678 352.95 206.628 352.25 208.628 351.35V357.125C206.678 358.025 204.753 358.675 202.853 359.075C201.003 359.525 198.753 359.75 196.103 359.75C192.503 359.75 189.328 358.975 186.578 357.425C183.828 355.875 181.678 353.575 180.128 350.525C178.578 347.425 177.803 343.65 177.803 339.2C177.803 334.8 178.503 331.025 179.903 327.875C181.303 324.725 183.253 322.3 185.753 320.6C188.303 318.9 191.253 318.05 194.603 318.05ZM194.603 323.45C191.703 323.45 189.403 324.475 187.703 326.525C186.003 328.525 185.003 331.325 184.703 334.925H203.603C203.603 332.625 203.278 330.625 202.628 328.925C201.978 327.225 200.978 325.9 199.628 324.95C198.328 323.95 196.653 323.45 194.603 323.45ZM253.27 347.9C253.27 350.5 252.645 352.675 251.395 354.425C250.195 356.175 248.47 357.5 246.22 358.4C243.97 359.3 241.27 359.75 238.12 359.75C235.47 359.75 233.17 359.525 231.22 359.075C229.32 358.625 227.645 358 226.195 357.2V351.2C227.745 352 229.595 352.75 231.745 353.45C233.895 354.1 236.07 354.425 238.27 354.425C241.32 354.425 243.52 353.9 244.87 352.85C246.27 351.75 246.97 350.3 246.97 348.5C246.97 347.5 246.695 346.6 246.145 345.8C245.645 345 244.72 344.2 243.37 343.4C242.07 342.6 240.17 341.7 237.67 340.7C235.27 339.7 233.195 338.7 231.445 337.7C229.745 336.7 228.42 335.5 227.47 334.1C226.57 332.7 226.12 330.9 226.12 328.7C226.12 325.3 227.42 322.675 230.02 320.825C232.67 318.975 236.12 318.05 240.37 318.05C242.67 318.05 244.82 318.3 246.82 318.8C248.82 319.25 250.72 319.9 252.52 320.75L250.345 326C249.295 325.5 248.195 325.075 247.045 324.725C245.895 324.325 244.72 324.025 243.52 323.825C242.37 323.575 241.195 323.45 239.995 323.45C237.545 323.45 235.67 323.9 234.37 324.8C233.07 325.65 232.42 326.825 232.42 328.325C232.42 329.425 232.72 330.375 233.32 331.175C233.92 331.975 234.895 332.75 236.245 333.5C237.645 334.2 239.545 335.025 241.945 335.975C244.345 336.925 246.395 337.9 248.095 338.9C249.795 339.9 251.07 341.125 251.92 342.575C252.82 343.975 253.27 345.75 253.27 347.9Z" fill="#052A75"/>
<defs>
<radialGradient id="paint0_radial_3_4" cx="0" cy="0" r="1" gradientUnits="userSpaceOnUse" gradientTransform="translate(210.773 18.1818) rotate(125.282) scale(226.405 178.294)">
<stop offset="0.632683" stop-color="#FDE0BE"/>
<stop offset="0.632783" stop-color="#F7B073"/>
</radialGradient>
<radialGradient id="paint1_radial_3_4" cx="0" cy="0" r="1" gradientUnits="userSpaceOnUse" gradientTransform="translate(210.773 21.5909) rotate(126.238) scale(226.832 169.093)">
<stop offset="0.630208" stop-color="white"/>
<stop offset="0.630308" stop-color="#D2DCFD"/>
</radialGradient>
</defs>
</svg>
