<svg width="147" height="202" viewBox="0 0 147 202" fill="none" xmlns="http://www.w3.org/2000/svg">
<rect x="2" y="18.1818" width="143.182" height="181.818" rx="10" fill="url(#paint0_radial_3_2)" stroke="#052A75" stroke-width="3"/>
<rect x="27" y="50" width="93.1818" height="125" rx="10" fill="url(#paint1_radial_3_2)" stroke="#052A75" stroke-width="3"/>
<path d="M52 109.091L95.1818 109.091" stroke="#052A75" stroke-width="3" stroke-linecap="round"/>
<path d="M52 84.0909L95.1818 84.0909" stroke="#052A75" stroke-width="3" stroke-linecap="round"/>
<line x1="51.2273" y1="137.136" x2="75.5" y2="137.136" stroke="#052A75" stroke-width="3" stroke-linecap="round"/>
<mask id="path-6-inside-1_3_2" fill="white">
<path fill-rule="evenodd" clip-rule="evenodd" d="M95.0696 20.4545C93.9293 8.96972 84.2394 0 72.4546 0C60.6697 0 50.9798 8.96972 49.8395 20.4545H49.7273L49.7273 27.2727V34.0909H95.1818L95.1818 27.2727V20.4545H95.0696Z"/>
</mask>
<path fill-rule="evenodd" clip-rule="evenodd" d="M95.0696 20.4545C93.9293 8.96972 84.2394 0 72.4546 0C60.6697 0 50.9798 8.96972 49.8395 20.4545H49.7273L49.7273 27.2727V34.0909H95.1818L95.1818 27.2727V20.4545H95.0696Z" fill="#D46B5C"/>
<path d="M95.0696 20.4545L92.0843 20.7509L92.3527 23.4545H95.0696V20.4545ZM49.8395 20.4545V23.4545H52.5564L52.8248 20.7509L49.8395 20.4545ZM49.7273 20.4545V17.4545H46.7273L46.7273 20.4545L49.7273 20.4545ZM49.7273 27.2727L46.7273 27.2727V27.2727H49.7273ZM49.7273 34.0909H46.7273V37.0909H49.7273V34.0909ZM95.1818 34.0909V37.0909H98.1818L98.1818 34.0909L95.1818 34.0909ZM95.1818 27.2727L98.1818 27.2727V27.2727H95.1818ZM95.1818 20.4545H98.1818V17.4545H95.1818V20.4545ZM72.4546 3C82.682 3 91.0948 10.7853 92.0843 20.7509L98.0549 20.1581C96.7638 7.15412 85.7969 -3 72.4546 -3V3ZM52.8248 20.7509C53.8143 10.7853 62.2271 3 72.4546 3V-3C59.1123 -3 48.1453 7.15412 46.8542 20.1581L52.8248 20.7509ZM49.7273 23.4545H49.8395V17.4545H49.7273V23.4545ZM52.7273 27.2727L52.7273 20.4545L46.7273 20.4545L46.7273 27.2727L52.7273 27.2727ZM52.7273 34.0909V27.2727H46.7273V34.0909H52.7273ZM95.1818 31.0909H49.7273V37.0909H95.1818V31.0909ZM92.1818 27.2727L92.1818 34.0909L98.1818 34.0909L98.1818 27.2727L92.1818 27.2727ZM92.1818 20.4545V27.2727H98.1818V20.4545H92.1818ZM95.0696 23.4545H95.1818V17.4545H95.0696V23.4545Z" fill="#052A75" mask="url(#path-6-inside-1_3_2)"/>
<defs>
<radialGradient id="paint0_radial_3_2" cx="0" cy="0" r="1" gradientUnits="userSpaceOnUse" gradientTransform="translate(141.773 18.1818) rotate(125.282) scale(226.405 178.294)">
<stop offset="0.632683" stop-color="#FDE0BE"/>
<stop offset="0.632783" stop-color="#F7B073"/>
</radialGradient>
<radialGradient id="paint1_radial_3_2" cx="0" cy="0" r="1" gradientUnits="userSpaceOnUse" gradientTransform="translate(141.773 21.5909) rotate(126.238) scale(226.832 169.093)">
<stop offset="0.630208" stop-color="white"/>
<stop offset="0.630308" stop-color="#D2DCFD"/>
</radialGradient>
</defs>
</svg>
